<svg width="34" height="34" viewBox="0 0 34 34" fill="none" xmlns="http://www.w3.org/2000/svg">
<g clip-path="url(#clip0_1_96)">
<path d="M28.333 14.1673V9.91732C28.333 8.35898 27.058 7.08398 25.4997 7.08398H8.49967C6.94134 7.08398 5.66634 8.35898 5.66634 9.91732V14.1673C4.10801 14.1673 2.83301 15.4423 2.83301 17.0007V24.084H4.71717L5.66634 26.9173H7.08301L8.03218 24.084H25.9813L26.9163 26.9173H28.333L29.2822 24.084H31.1663V17.0007C31.1663 15.4423 29.8913 14.1673 28.333 14.1673ZM15.583 14.1673H8.49967V9.91732H15.583V14.1673ZM25.4997 14.1673H18.4163V9.91732H25.4997V14.1673Z" fill="white"/>
</g>
<defs>
<clipPath id="clip0_1_96">
<rect width="34" height="34" fill="white"/>
</clipPath>
</defs>
</svg>
