<svg width="18" height="19" viewBox="0 0 18 19" fill="none" xmlns="http://www.w3.org/2000/svg">
<path d="M12.8555 12.0969H12.0663L11.7865 11.8134C12.7656 10.6164 13.3551 9.06237 13.3551 7.37187C13.3551 3.60237 10.4478 0.546875 6.86112 0.546875C3.27447 0.546875 0.367188 3.60237 0.367188 7.37187C0.367188 11.1414 3.27447 14.1969 6.86112 14.1969C8.46962 14.1969 9.94824 13.5774 11.0872 12.5484L11.3569 12.8424V13.6719L16.3523 18.9114L17.8409 17.3469L12.8555 12.0969ZM6.86112 12.0969C4.37345 12.0969 2.36532 9.98637 2.36532 7.37187C2.36532 4.75737 4.37345 2.64687 6.86112 2.64687C9.3488 2.64687 11.3569 4.75737 11.3569 7.37187C11.3569 9.98637 9.3488 12.0969 6.86112 12.0969Z" fill="#B4B1B1"/>
</svg>
